<svg width="20" height="22" viewBox="0 0 20 22" fill="none" xmlns="http://www.w3.org/2000/svg">
<path fill-rule="evenodd" clip-rule="evenodd" d="M7.75002 1.5C7.4185 1.5 7.10055 1.6317 6.86613 1.86612C6.63171 2.10054 6.50002 2.41848 6.50002 2.75V3.99998H13V2.75C13 2.41848 12.8683 2.10054 12.6339 1.86612C12.3995 1.6317 12.0815 1.5 11.75 1.5H7.75002ZM14.5 3.99998V2.75C14.5 2.02065 14.2103 1.32118 13.6946 0.805456C13.1788 0.289731 12.4794 0 11.75 0H7.75002C7.02067 0 6.3212 0.289731 5.80547 0.805456C5.28975 1.32118 5.00002 2.02065 5.00002 2.75V3.99999L0.75 3.99998C0.335786 3.99998 0 4.33577 0 4.74998C0 5.1642 0.335786 5.49998 0.75 5.49998H2L2.00002 18.75C2.00002 19.4793 2.28975 20.1788 2.80547 20.6945C3.3212 21.2103 4.02067 21.5 4.75002 21.5H14.75C15.4794 21.5 16.1788 21.2103 16.6946 20.6945C17.2103 20.1788 17.5 19.4793 17.5 18.75V5.49998H18.75C19.1642 5.49998 19.5 5.1642 19.5 4.74998C19.5 4.33577 19.1642 3.99998 18.75 3.99998H14.5ZM5.7545 5.49999C5.753 5.5 5.75151 5.5 5.75002 5.5C5.74852 5.5 5.74703 5.5 5.74553 5.49999L3.5 5.49998L3.50002 18.75C3.50002 19.0815 3.63171 19.3995 3.86613 19.6339C4.10055 19.8683 4.4185 20 4.75002 20H14.75C15.0815 20 15.3995 19.8683 15.6339 19.6339C15.8683 19.3995 16 19.0815 16 18.75V5.5L13.7524 5.5C13.7516 5.5 13.7508 5.5 13.75 5.5C13.7492 5.5 13.7485 5.5 13.7477 5.5L5.7545 5.49999ZM7.74998 9C8.1642 9 8.49998 9.33579 8.49998 9.75V15.75C8.49998 16.1642 8.1642 16.5 7.74998 16.5C7.33577 16.5 6.99998 16.1642 6.99998 15.75V9.75C6.99998 9.33579 7.33577 9 7.74998 9ZM11.75 9C12.1642 9 12.5 9.33579 12.5 9.75V15.75C12.5 16.1642 12.1642 16.5 11.75 16.5C11.3358 16.5 11 16.1642 11 15.75V9.75C11 9.33579 11.3358 9 11.75 9Z" fill="#303754"/>
</svg>
